<?xml version="1.0" encoding="UTF-8"?>
<svg width="88px" height="88px" viewBox="0 0 88 88" version="1.1" xmlns="http://www.w3.org/2000/svg" xmlns:xlink="http://www.w3.org/1999/xlink">
    <title>PancakeSwapV2_2</title>
    <g id="全链BTC_swap" stroke="none" stroke-width="1" fill="none" fill-rule="evenodd">
        <g id="画板" transform="translate(-814.205487, -718.286585)">
            <g id="PancakeSwapV2_2" transform="translate(814.205487, 718.286585)">
                <rect id="矩形" fill="#FFFFFF" x="0" y="0" width="88" height="88" rx="44"></rect>
                <g id="MetaMask">
                    <rect id="矩形" fill="#D8D8D8" opacity="0" x="5.5" y="5.5" width="77" height="77"></rect>
                    <g id="pancakeswap-cake-logo" transform="translate(11.000000, 11.000000)">
                        <path d="M11.8675079,10.3125 C10.8264984,4.95 14.9905363,0 20.4037855,0 C25.192429,0 29.148265,3.91875 29.148265,8.6625 L29.148265,19.3875 C30.3974763,19.3875 31.6466877,19.18125 32.8958991,19.18125 C34.1451104,19.18125 35.1861199,19.18125 36.4353312,19.3875 L36.4353312,8.6625 C36.4353312,3.91875 40.3911672,0 45.1798107,0 C50.5930599,0 54.7570978,4.95 53.9242902,10.3125 L51.6340694,22.89375 C59.7539432,26.4 66,32.5875 66,40.21875 L66,44.9625 C66,51.35625 61.8359621,56.71875 55.7981073,60.225 C49.7602524,63.9375 41.8485804,66 32.8958991,66 C23.9432177,66 16.0315457,63.9375 9.99369085,60.225 C4.16403785,56.71875 0,51.35625 0,44.9625 L0,40.21875 C0,32.5875 6.03785489,26.4 14.1577287,22.89375 L11.8675079,10.3125 Z M48.511041,24.54375 L51.2176656,9.69375 C51.8422713,5.98125 49.1356467,2.475 45.1798107,2.475 C41.8485804,2.475 39.1419558,5.15625 39.1419558,8.45625 L39.1419558,22.06875 C38.3091483,21.8625 37.2681388,21.8625 36.4353312,21.8625 C35.1861199,21.8625 34.1451104,21.65625 32.8958991,21.65625 C31.6466877,21.65625 30.3974763,21.65625 29.148265,21.8625 C28.3154574,21.8625 27.2744479,22.06875 26.4416404,22.06875 L26.4416404,8.6625 C26.4416404,5.3625 23.7350158,2.68125 20.4037855,2.68125 C16.6561514,2.68125 13.7413249,6.1875 14.5741325,9.9 L17.2807571,24.75 C8.5362776,28.05 2.70662461,33.825 2.70662461,40.425 L2.70662461,45.16875 C2.70662461,55.275 16.2397476,63.525 32.8958991,63.525 C49.5520505,63.525 63.0851735,55.275 63.0851735,45.16875 L63.0851735,40.425 C63.2933754,33.61875 57.4637224,27.84375 48.511041,24.54375 Z" id="形状" fill="#633001"></path>
                        <path d="M63.2933754,44.9625 C63.2933754,55.06875 49.7602524,63.31875 33.1041009,63.31875 C16.4479495,63.31875 2.9148265,55.06875 2.9148265,44.9625 L2.9148265,40.21875 L63.5015773,40.21875 L63.5015773,44.9625 L63.2933754,44.9625 Z" id="路径" fill="#FEDC90" fill-rule="nonzero"></path>
                        <path d="M14.5741325,9.9 C13.7413249,6.1875 16.6561514,2.68125 20.4037855,2.68125 C23.7350158,2.68125 26.4416404,5.3625 26.4416404,8.6625 L26.4416404,22.275 C28.5236593,22.06875 30.6056782,21.8625 32.8958991,21.8625 C34.977918,21.8625 37.0599369,22.06875 39.1419558,22.275 L39.1419558,8.6625 C39.1419558,5.3625 41.8485804,2.68125 45.1798107,2.68125 C48.9274448,2.68125 51.8422713,6.1875 51.2176656,9.9 L48.511041,24.75 C57.2555205,28.05 63.2933754,33.825 63.2933754,40.425 C63.2933754,50.53125 49.7602524,58.78125 33.1041009,58.78125 C16.4479495,58.78125 2.9148265,50.53125 2.9148265,40.425 C2.9148265,33.825 8.7444795,28.05 17.488959,24.75 L14.5741325,9.9 Z" id="路径" fill="#D1884F"></path>
                        <path d="M24.5678233,38.98125 C24.5678233,41.6625 23.1104101,43.93125 21.2365931,43.93125 C19.362776,43.93125 17.9053628,41.6625 17.9053628,38.98125 C17.9053628,36.3 19.362776,34.03125 21.2365931,34.03125 C23.1104101,34.03125 24.5678233,36.3 24.5678233,38.98125 Z" id="路径" fill="#633001" fill-rule="nonzero"></path>
                        <path d="M47.6782334,38.98125 C47.6782334,41.6625 46.2208202,43.93125 44.3470032,43.93125 C42.4731861,43.93125 41.0157729,41.6625 41.0157729,38.98125 C41.0157729,36.3 42.4731861,34.03125 44.3470032,34.03125 C46.2208202,34.03125 47.6782334,36.3 47.6782334,38.98125 Z" id="路径" fill="#633001" fill-rule="nonzero"></path>
                    </g>
                    <rect id="矩形" x="0" y="0" width="88" height="88" rx="38.5"></rect>
                </g>
            </g>
        </g>
    </g>
</svg>