<?xml version="1.0" encoding="UTF-8"?>
<svg width="88px" height="88px" viewBox="0 0 88 88" version="1.1" xmlns="http://www.w3.org/2000/svg" xmlns:xlink="http://www.w3.org/1999/xlink">
    <title>SushiswapV2_2</title>
    <defs>
        <linearGradient x1="35.5353448%" y1="7.2513793%" x2="51.4344828%" y2="54.1081322%" id="linearGradient-1">
            <stop stop-color="#03B8FF" offset="0%"></stop>
            <stop stop-color="#FA52A0" offset="100%"></stop>
        </linearGradient>
        <linearGradient x1="36.5085128%" y1="12.6735515%" x2="55.5162467%" y2="64.9707944%" id="linearGradient-2">
            <stop stop-color="#03B8FF" offset="0%"></stop>
            <stop stop-color="#FA52A0" offset="100%"></stop>
        </linearGradient>
        <linearGradient x1="28.7245071%" y1="-8.23869959%" x2="47.7931559%" y2="44.7399085%" id="linearGradient-3">
            <stop stop-color="#03B8FF" offset="0%"></stop>
            <stop stop-color="#FA52A0" offset="100%"></stop>
        </linearGradient>
    </defs>
    <g id="全链BTC_swap" stroke="none" stroke-width="1" fill="none" fill-rule="evenodd">
        <g id="画板" transform="translate(-261.520424, -469.286585)">
            <g id="SushiswapV2_2" transform="translate(261.520424, 469.286585)">
                <rect id="矩形" fill="#FFFFFF" x="0" y="0" width="88" height="88" rx="44"></rect>
                <g id="MetaMask" transform="translate(5.500000, 5.500000)">
                    <rect id="矩形" fill="#D8D8D8" opacity="0" x="0" y="0" width="77" height="77"></rect>
                    <g id="sushiswap-sushi-logo" transform="translate(0.000000, 5.500000)">
                        <polygon id="路径" fill="url(#linearGradient-1)" fill-rule="nonzero" points="15.8882238 4.10780288 75.7035018 45.3779964 60.910476 67.4754228 1.09519807 25.8802672"></polygon>
                        <path d="M75.7035018,45.3779964 C70.5581015,52.8521259 53.1923756,49.9274665 36.7914123,38.228829 C20.0688615,26.8551536 11.0644111,11.5819324 15.8882238,4.10780288 C21.0336241,-3.36632666 38.3993499,-0.441667273 54.8003132,11.2569703 C71.522864,22.3056835 80.5273145,37.9038668 75.7035018,45.3779964 Z" id="路径" fill="url(#linearGradient-2)" fill-rule="nonzero"></path>
                        <path d="M60.910476,67.1504607 C55.7650758,74.6245902 38.3993499,71.6999308 21.9983866,60.0012933 C5.5974233,48.3026558 -3.72861466,33.3543967 1.41678559,25.555305 C6.56218584,18.0811755 23.9279117,21.0058349 40.328875,32.7044724 C56.7298383,44.4031099 65.7342888,59.6763311 60.910476,67.1504607 Z" id="路径" fill="url(#linearGradient-3)" fill-rule="nonzero"></path>
                        <path d="M75.7035018,45.3779964 C75.7035018,45.3779964 75.7035018,45.3779964 75.7035018,45.3779964 L60.910476,67.4754228 L60.910476,67.4754228 C55.7650758,74.9495524 38.3993499,71.6999308 21.9983866,60.3262554 C18.7825114,58.0515204 15.8882238,55.7767853 12.9939362,53.1770881 C15.2450488,52.8521259 18.1393364,51.5522773 21.0336241,48.3026558 C26.1790243,42.7782992 28.7517244,41.4784505 31.002837,41.8034127 C33.2539497,41.8034127 35.8266498,44.0781478 40.0072875,49.6025044 C44.1879252,55.126861 49.9765005,56.7516718 53.5139632,53.8270124 C53.8355507,53.5020502 54.1571382,53.5020502 54.4787257,53.1770881 C57.3730134,50.902353 58.3377759,49.9274665 63.8047637,39.5286776 C65.0911137,36.9289804 69.593339,32.7044724 75.7035018,34.6542453 C77.3114393,38.8787533 77.3114393,42.453337 75.7035018,45.3779964 Z" id="路径" fill="#0E0F23" fill-rule="nonzero"></path>
                        <path d="M73.4523891,44.0781478 C68.9501639,50.5773908 53.1923756,47.3277693 38.0777624,36.6040182 C22.6415616,25.8802672 13.6371112,12.2318567 18.1393364,5.73261364 C22.6415616,-0.766629426 38.3993499,2.48299211 53.5139632,13.2067432 C68.6285764,23.9304942 77.6330268,37.5789047 73.4523891,44.0781478 Z M59.3025384,34.3292832 C57.0514258,37.5789047 49.3333255,35.9540939 41.6152251,30.7546995 C34.2187122,25.555305 29.716487,18.7310998 31.9675996,15.4814783 C34.2187122,12.2318567 41.9368126,13.8566675 49.654913,19.0560619 C57.0514258,24.2554564 61.5536511,31.0796616 59.3025384,34.3292832 Z" id="形状" fill="#FFFFFF"></path>
                        <path d="M14.6018737,11.5819324 C14.6018737,11.2569703 14.2802862,10.9320081 13.9586987,11.2569703 C13.6371112,11.5819324 13.3155237,11.5819324 13.3155237,11.9068946 C13.6371112,12.881781 13.9586987,13.5317053 13.9586987,14.1816296 C13.9586987,14.5065918 14.2802862,14.8315539 14.6018737,14.5065918 C14.9234613,14.5065918 15.2450488,14.1816296 14.9234613,13.8566675 C14.9234613,13.2067432 14.9234613,12.5568189 14.6018737,11.5819324 Z" id="路径" fill="#FFFFFF" fill-rule="nonzero"></path>
                        <path d="M16.2098113,16.7813269 C16.2098113,16.4563647 15.8882238,16.1314026 15.5666363,16.4563647 C15.2450488,16.7813269 15.2450488,16.7813269 15.2450488,17.106289 C18.7825114,25.2303429 26.1790243,34.004321 35.8266498,40.5035641 C36.1482373,40.8285262 36.4698248,40.5035641 36.7914123,40.5035641 C37.1129999,40.1786019 36.7914123,39.8536398 36.7914123,39.5286776 C26.8221993,33.0294345 19.747274,24.5804186 16.2098113,16.7813269 Z" id="路径" fill="#FFFFFF" fill-rule="nonzero"></path>
                        <path d="M55.1219007,48.6276179 C54.8003132,48.6276179 54.4787257,48.6276179 54.4787257,48.9525801 C54.4787257,49.2775422 54.4787257,49.6025044 54.8003132,49.6025044 C55.7650758,49.9274665 57.0514258,50.2524287 58.0161884,50.5773908 C58.3377759,50.5773908 58.6593634,50.5773908 58.6593634,50.2524287 C58.6593634,49.9274665 58.6593634,49.6025044 58.3377759,49.6025044 C57.3730134,49.2775422 56.0866633,48.9525801 55.1219007,48.6276179 Z" id="路径" fill="#FFFFFF" fill-rule="nonzero"></path>
                        <path d="M60.910476,49.9274665 C60.5888885,49.9274665 60.267301,50.2524287 60.267301,50.5773908 C60.267301,50.902353 60.5888885,51.2273151 60.910476,51.2273151 C63.4831762,51.5522773 66.3774638,51.8772395 68.6285764,51.5522773 C68.9501639,51.5522773 69.2717514,51.2273151 69.2717514,50.902353 C69.2717514,50.5773908 68.9501639,50.2524287 68.6285764,50.2524287 C66.0558763,50.5773908 63.4831762,50.2524287 60.910476,49.9274665 Z" id="路径" fill="#FFFFFF" fill-rule="nonzero"></path>
                    </g>
                    <rect id="矩形" x="0" y="0" width="77" height="77" rx="38.5"></rect>
                </g>
            </g>
        </g>
    </g>
</svg>