<?xml version="1.0" encoding="UTF-8"?>
<svg width="88px" height="88px" viewBox="0 0 88 88" version="1.1" xmlns="http://www.w3.org/2000/svg" xmlns:xlink="http://www.w3.org/1999/xlink">
    <title>UniswapV3_2</title>
    <defs>
        <rect id="path-1" x="0" y="0" width="88" height="88" rx="44"></rect>
    </defs>
    <g id="全链BTC_swap" stroke="none" stroke-width="1" fill="none" fill-rule="evenodd">
        <g id="画板" transform="translate(-890.459567, -654.786585)">
            <g id="UniswapV3_2" transform="translate(890.459567, 654.786585)">
                <g id="编组-2">
                    <mask id="mask-2" fill="white">
                        <use xlink:href="#path-1"></use>
                    </mask>
                    <use id="矩形" fill="#FFFFFF" xlink:href="#path-1"></use>
                    <g id="Uniswap_Logo" mask="url(#mask-2)" fill="#FF007A">
                        <g transform="translate(4.812500, -5.500000)">
                            <path d="M28.3250719,18.7763328 C27.4281637,18.6382828 27.3902424,18.6219789 27.8124433,18.5576774 C28.6213802,18.4341028 30.5314171,18.6024751 31.8477628,18.9130116 C34.9206177,19.638003 37.7168159,21.4951268 40.701546,24.7932435 L41.4945161,25.6695414 L42.628778,25.4885221 C47.4076317,24.7263517 52.2690832,25.3320349 56.3352617,27.1963203 C57.4538638,27.7092083 59.2175889,28.7302608 59.437901,28.9926473 C59.5082167,29.0761478 59.6371799,29.6144821 59.7243836,30.1887765 C60.0263723,32.1757222 59.8753012,33.6988442 59.2628796,34.8363097 C58.9297247,35.4554018 58.9111478,35.651506 59.1351446,36.1813074 C59.3140043,36.6041429 59.8125084,36.9169649 60.3062532,36.9163555 C61.3167718,36.9149841 62.4043614,35.2937339 62.908239,33.0380019 L63.108439,32.1420478 L63.5050007,32.5877392 C65.6801798,35.0336329 67.388635,38.3692334 67.6820262,40.7435117 L67.758483,41.3624514 L67.3929337,40.7997374 C66.7636241,39.831406 66.1313974,39.1720875 65.3218464,38.6404576 C63.862413,37.6820305 62.3193071,37.355952 58.2327094,37.1421725 C54.5417523,36.9491157 52.4528557,36.6362936 50.3814613,35.9658518 C46.8573888,34.8254912 45.0807674,33.3067881 40.8945302,27.8556389 C39.0351575,25.4345821 37.8858498,24.0949174 36.7426833,23.0161155 C34.1449963,20.5648888 31.5924464,19.2793166 28.3250719,18.7763328 Z" id="路径" fill-rule="nonzero"></path>
                            <path d="M60.2704812,24.1822272 C60.3633654,22.5599103 60.5850593,21.4896414 61.0307499,20.5124724 C61.2071531,20.125597 61.3725024,19.8089656 61.3979879,19.8089656 C61.4234735,19.8089656 61.3468632,20.0945129 61.2275723,20.4434474 C60.9034755,21.3919702 60.850355,22.6891228 61.0734306,24.1985311 C61.3568425,26.1135568 61.517893,26.3898093 63.5573537,28.4585794 C64.5139841,29.4288916 65.6265987,30.6526003 66.0299157,31.1779829 L66.763317,32.1333625 L66.0299157,31.4505785 C65.1330074,30.615726 63.0703641,28.9874666 62.6146942,28.7546405 C62.3093278,28.5986104 62.2638836,28.6012007 62.0753517,28.7874007 C61.901712,28.9589728 61.8651724,29.2166358 61.8410686,30.4351638 C61.8036079,32.3341903 61.5427645,33.5531755 60.9133013,34.7720082 C60.5729306,35.4311744 60.5191959,35.290534 60.8273258,34.546496 C61.0573102,33.9909435 61.0806464,33.7466893 61.0789576,31.908155 C61.0754264,28.2144777 60.633574,27.326447 58.0423351,25.8051535 C57.3858511,25.4198019 56.3042492,24.8639446 55.6388605,24.5700168 C54.9733184,24.2760891 54.4447229,24.0199498 54.4639138,24.0009032 C54.5373,23.9283735 57.0643643,24.6603741 58.0814847,25.0486209 C59.5943457,25.6262675 59.8441351,25.7010827 60.0279076,25.6314482 C60.1510368,25.584822 60.2106055,25.2287259 60.2704812,24.1822272 Z" id="路径" fill-rule="nonzero"></path>
                            <path d="M30.0674567,30.5012938 C28.2464658,28.0131927 27.1198803,24.1982264 27.3636821,21.3464106 L27.4392177,20.4638654 L27.8535887,20.5389854 C28.6321272,20.6799305 29.9741119,21.1757527 30.6026539,21.5545524 C32.3272295,22.5940419 33.0738342,23.9626575 33.8334888,27.477144 C34.0559503,28.5064246 34.3478062,29.6713173 34.4821429,30.0658113 C34.6984633,30.7005979 35.5155372,32.1833409 36.1798511,33.1463392 C36.6583967,33.8397893 36.3405945,34.1684582 35.2827893,34.0736821 C33.6673719,33.9289276 31.479143,32.4301854 30.0674567,30.5012938 Z" id="路径" fill-rule="nonzero"></path>
                            <path d="M58.0616796,49.0195065 C49.5516447,45.6188427 46.5544788,42.6670702 46.5544788,37.6866017 C46.5544788,36.9536869 46.5799644,36.3539462 46.6108234,36.3539462 C46.641836,36.3539462 46.9711527,36.5959147 47.342536,36.8915186 C49.0681862,38.2651625 51.0006382,38.8519515 56.3503074,39.6264642 C59.4982374,40.0823646 61.2697924,40.4504981 62.9039402,40.9883753 C68.098086,42.698002 71.3117258,46.1675384 72.077982,50.8932391 C72.3007506,52.2664258 72.1700986,54.8413796 71.8090017,56.1985671 C71.5240544,57.2705122 70.6543206,59.2026036 70.4235686,59.276657 C70.3595476,59.2972274 70.2969083,59.0540398 70.2804809,58.722933 C70.1929701,56.9485477 69.2894602,55.2209411 67.7721469,53.926836 C66.0469573,52.4555209 63.7289975,51.2840762 58.0616796,49.0195065 Z" id="路径" fill-rule="nonzero"></path>
                            <path d="M52.0874601,50.4321579 C51.9807584,49.8025521 51.7959111,48.9983267 51.6764667,48.6451257 L51.4593786,48.0030253 L51.8626956,48.4523737 C52.4207685,49.0740561 52.8618533,49.8697487 53.235693,50.9293515 C53.5209473,51.7381481 53.5530345,51.978593 53.5509804,53.2929637 C53.5487358,54.5832595 53.5131174,54.8537218 53.249664,55.5816083 C52.8342183,56.7295875 52.3186726,57.5435649 51.4535446,58.4172725 C49.8990776,59.9874777 47.9004553,60.8567665 45.0164393,61.2174337 C44.5150181,61.2800591 43.053896,61.3856537 41.7693305,61.451936 C38.531894,61.6189369 36.4012379,61.9642145 34.4867487,62.6314565 C34.2114737,62.7274515 33.965676,62.7856581 33.9408046,62.7609736 C33.8632731,62.6844823 35.166876,61.9131695 36.2435651,61.398453 C37.761646,60.6726997 39.2728182,60.2766819 42.6588694,59.7170154 C44.3315527,59.4404581 46.0588917,59.1050848 46.4975201,58.971606 C50.6396948,57.7111753 52.7688156,54.4584659 52.0874601,50.4321579 Z" id="路径" fill-rule="nonzero"></path>
                            <path d="M55.9884429,57.3083007 C54.8578656,54.8959291 54.5982505,52.5669057 55.2175808,50.3946741 C55.2839047,50.1626098 55.3904529,49.9726005 55.4546274,49.9726005 C55.5186484,49.9726005 55.7854794,50.1158313 56.0473975,50.2907557 C56.5684702,50.6389283 57.613379,51.2251078 60.3974486,52.731621 C63.8714711,54.6114485 65.8521307,56.0670691 67.1991819,57.7300696 C68.3787345,59.1866045 69.1087582,60.8453385 69.4601829,62.868092 C69.6590011,64.013938 69.5424737,66.7708253 69.2463189,67.9245947 C68.312257,71.5625035 66.1413767,74.419957 63.0450321,76.0873763 C62.591358,76.3316304 62.1842028,76.5323059 62.1401404,76.5332212 C62.0960779,76.533982 62.2612736,76.1169367 62.5073784,75.6061819 C63.5490632,73.445226 63.6675865,71.3432385 62.8801434,69.0035489 C62.3979132,67.5709366 61.414876,65.8229119 59.4299176,62.8685491 C57.1220907,59.4337537 56.556188,58.5195148 55.9884429,57.3083007 Z" id="路径" fill-rule="nonzero"></path>
                            <path d="M24.0239962,70.3240146 C27.182059,67.6775978 31.1112909,65.797618 34.6906334,65.2205809 C36.2331252,64.9717556 38.8027167,65.0704934 40.2311375,65.4332938 C42.5208481,66.0149021 44.5689063,67.3173877 45.6340808,68.8693082 C46.6751515,70.3860304 47.1217633,71.7077151 47.5867984,74.6485167 C47.7701104,75.8085335 47.9696962,76.9734261 48.0300326,77.237184 C48.3791544,78.7612202 49.0588211,79.9794435 49.9007664,80.5912216 C51.2382989,81.5627528 53.5413664,81.6232449 55.8068197,80.7461851 C56.1914064,80.5973166 56.5251754,80.4943123 56.5486651,80.5176254 C56.6308024,80.5985356 55.4900923,81.3565919 54.6851471,81.7555048 C53.6023169,82.2923154 52.7411806,82.5 51.5969394,82.5 C49.5220138,82.5 47.7992806,81.4522823 46.3618017,79.3161632 C46.0790038,78.8957657 45.4430925,77.636554 44.9488872,76.5181352 C43.4312668,73.0824256 42.6817451,72.0357744 40.9195552,70.8903855 C39.385968,69.8937128 37.4082255,69.7152839 35.9203895,70.439361 C33.9659831,71.3903218 33.4206531,73.8691281 34.8205177,75.4400952 C35.3767482,76.064368 36.4142878,76.6028546 37.2626813,76.707535 C38.8496961,76.9034869 40.2136353,75.7052245 40.2136353,74.114906 C40.2136353,73.0822732 39.8136959,72.4930462 38.8070154,72.0421741 C37.4320222,71.4264342 35.9541655,72.1460926 35.9612278,73.4281602 C35.9642984,73.9747227 36.2041085,74.3180194 36.7561937,74.5659305 C37.1103819,74.725008 37.1186724,74.737655 36.8297335,74.6780771 C35.5681971,74.4184333 35.2726565,72.9090249 36.2870134,71.9068668 C37.5047943,70.7038808 40.0231076,71.2347488 40.8879286,72.8768742 C41.2511749,73.566515 41.293395,74.9401589 40.9766675,75.7696783 C40.267677,77.6261927 38.2007349,78.6024474 36.103855,78.0711222 C34.6763553,77.7093884 34.0950998,77.3177894 32.3739019,75.5581844 C29.3830307,72.5005125 28.2219014,71.9079334 23.9100787,71.2399295 L23.0837932,71.1119361 L24.0239962,70.3240146 Z" id="路径" fill-rule="nonzero"></path>
                            <path d="M1.47097571,1.82895007 C11.4591437,13.8604401 26.8578087,32.5927675 27.6223761,33.6415519 C28.2535281,34.5074884 28.0160209,35.2859628 26.934726,35.8960649 C26.3333584,36.2353999 25.0970006,36.5791537 24.4779773,36.5791537 C23.7778914,36.5791537 22.9892201,36.2445423 22.4148734,35.70377 C22.0087929,35.3216181 20.3703463,32.8933997 16.5878868,27.0684793 C13.693738,22.6115648 11.2716865,18.9142305 11.2056697,18.852367 C11.0529097,18.7091363 11.0555197,18.7140122 16.2928067,28.0144117 C19.581368,33.8544172 20.6915261,35.9190732 20.6915261,36.1951734 C20.6915261,36.7568208 20.5372308,37.0519676 19.8391408,37.8248041 C18.6754016,39.1132714 18.1552501,40.5609686 17.7797216,43.5572341 C17.3585954,46.9159953 16.1748975,49.2885975 12.8943197,53.3491894 C10.9739965,55.7262104 10.6597255,56.1618452 10.1751924,57.1199675 C9.56476664,58.3263057 9.39696097,59.0020806 9.32894825,60.5255073 C9.25709733,62.1362438 9.3971145,63.1767999 9.89300866,64.7168353 C10.3270312,66.0651852 10.7800911,66.9553491 11.9384569,68.736134 C12.9380751,70.2726648 13.5138036,71.4147015 13.5138036,71.8613072 C13.5138036,72.2167937 13.5821234,72.2172509 15.1312169,71.8701448 C18.8381408,71.0392541 21.8483565,69.5779957 23.5413054,67.7873065 C24.5889778,66.6789442 24.834929,66.0668613 24.8429124,64.5480059 C24.8481324,63.554533 24.8129745,63.3465436 24.5424589,62.774992 C24.1019882,61.8447539 23.3001135,61.0713079 21.5327038,59.8722836 C19.217047,58.3011641 18.2280222,57.0363147 17.954743,55.2968229 C17.7305927,53.8695437 17.9906685,52.8625096 19.2717028,50.197808 C20.5977207,47.4395494 20.9262698,46.264143 21.1485777,43.4839426 C21.292126,41.6876157 21.4909443,40.9792329 22.0109423,40.4107287 C22.5532018,39.8176925 23.0414195,39.617017 24.3835578,39.4349311 C26.5716332,39.1382606 27.9648962,38.5764608 29.1102121,37.5290479 C30.1036892,36.6204468 30.519442,35.7449107 30.5833094,34.4268831 L30.6316706,33.4279247 L30.0765148,32.7855196 C28.0659174,30.4587817 0.124507932,0 0.000764685405,0 C-0.0256574149,0 0.635954433,0.823086193 1.47097571,1.82895007 Z M14.642385,62.3480424 C15.0969802,61.54915 14.8554813,60.5218503 14.0950591,60.0200856 C13.3765499,59.5459003 12.2604043,59.7692794 12.2604043,60.3871525 C12.2604043,60.575638 12.3655707,60.7129262 12.6023102,60.8339105 C13.0008679,61.037481 13.0298846,61.2663455 12.7162277,61.7342834 C12.3985791,62.2081639 12.4242182,62.624752 12.7885392,62.9078613 C13.3757823,63.3642189 14.2069807,63.1132603 14.642385,62.3480424 Z" id="形状" fill-rule="evenodd"></path>
                            <path d="M32.0124979,39.9589424 C30.9853982,40.2720692 29.9868547,41.3525471 29.6776501,42.4855938 C29.4891182,43.1767584 29.596127,44.3891915 29.8786178,44.7635723 C30.3349018,45.3683413 30.7761401,45.5277236 31.9710454,45.5193431 C34.310192,45.5031915 36.3438186,44.507433 36.5802511,43.2625445 C36.7741565,42.2422539 35.8809329,40.8280788 34.6507162,40.2073106 C34.0158796,39.8870222 32.6657578,39.759943 32.0124979,39.9589424 Z M34.7471315,42.0811955 C35.1079214,41.5725739 34.950095,41.0226593 34.3365987,40.6508688 C33.1682537,39.9427908 31.4013045,40.5286655 31.4013045,41.6242284 C31.4013045,42.1695719 32.3226236,42.7644367 33.1673325,42.7644367 C33.7293971,42.7644367 34.4987239,42.4318061 34.7471315,42.0811955 Z" id="形状" fill-rule="evenodd"></path>
                        </g>
                    </g>
                </g>
                <rect id="矩形" x="0" y="0" width="88" height="88" rx="44"></rect>
            </g>
        </g>
    </g>
</svg>